name C:\Users\tom_v\My Drive\PostDoc\MusculoskeletalSpecialization\ResultsSprinting\Case_2\motion.mot
datacolumns 32
datarows 7
range 0.09576745 0.11875163
endheader 
time	pelvis_tilt	pelvis_list	pelvis_rotation	pelvis_tx	pelvis_ty	pelvis_tz	hip_flexion_r	hip_adduction_r	hip_rotation_r	knee_angle_r	ankle_angle_r	subtalar_angle_r	mtp_angle_r	hip_flexion_l	hip_adduction_l	hip_rotation_l	knee_angle_l	ankle_angle_l	subtalar_angle_l	mtp_angle_l	lumbar_extension	lumbar_bending	lumbar_rotation	arm_flex_r	arm_add_r	arm_rot_r	elbow_flex_r	arm_flex_l	arm_add_l	arm_rot_l	elbow_flex_l	
          0.09576745	         -7.84533093	          7.31321857	        -23.41132257	          0.93730364	          0.93187225	          0.02745506	         -3.69929727	        -13.07726267	          1.63527676	        -29.17718716	        -19.44898560	         -5.70158643	         -3.82363537	         55.39806722	         -6.22626849	         -8.06299070	        -57.45574023	         16.40336208	         -5.22605369	          1.84151342	         -6.78998278	         -6.16806623	         13.42291758	         49.99746041	          2.07652811	          3.31551869	        112.00362831	        -69.99634675	         -0.65286409	         -8.96246481	          1.43888423	
          0.09959814	         -7.39680203	          7.08048887	        -23.58978427	          0.97413527	          0.93366854	          0.02809256	         -4.32572559	        -13.33211146	          1.59071508	        -30.35303277	        -19.82612342	         -3.73303603	         -0.81945522	         55.14092695	         -6.58964753	         -8.42365279	        -55.17156174	         17.29979505	         -6.25667947	          2.52384659	         -7.36004280	         -6.38273230	         14.44378376	         49.99810231	         -0.09912760	          3.17005832	        110.21903292	        -69.98834332	         -2.81224063	        -12.36771382	          0.36764645	
          0.10342884	         -6.87525860	          6.73426745	        -23.72975935	          1.01090397	          0.93571979	          0.02861508	         -4.97973535	        -13.39462307	          1.53102377	        -31.48035841	        -20.49130289	         -5.78654781	          1.47226439	         54.57916461	         -6.94251823	         -8.79325271	        -52.69584770	         18.10984335	         -7.15117909	          3.39364625	         -8.08329150	         -6.52104132	         15.42439424	         49.99845184	         -2.90772630	          3.23329550	        107.86210128	        -69.99987780	         -5.03056134	        -13.18889546	          0.00293816	
          0.10725954	         -6.27511226	          6.33139464	        -23.83975037	          1.04764261	          0.93800189	          0.02893563	         -5.61659696	        -13.40643168	          1.47979126	        -32.59528445	        -20.96119252	         -7.62367953	          2.80710374	         53.73733606	         -7.20880136	         -9.14561825	        -50.08374701	         18.85943293	         -7.83923631	          4.14295811	         -8.93794672	         -6.63244304	         16.36689194	         49.99911782	         -6.33481406	          3.65191540	        104.85312224	        -69.94935540	         -7.24223340	        -11.42108629	          0.12635383	
          0.11109024	         -5.61675923	          5.90220657	        -23.92433717	          1.08435652	          0.94046346	          0.02901363	         -6.17694879	        -13.42977966	          1.46441605	        -33.74043405	        -20.91632747	         -6.83937194	          3.91016391	         52.66960578	         -7.36080274	         -9.44563951	        -47.40142908	         19.53707193	         -8.27860806	          4.57761438	         -9.88981679	         -6.72906470	         17.27420530	         49.99948327	        -10.25008551	          4.53134890	        101.20279193	        -69.65975941	         -9.42372625	         -7.33296592	          0.31092574	
          0.11492093	         -4.93545319	          5.45348325	        -23.98178910	          1.12103019	          0.94303987	          0.02886886	         -6.61332045	        -13.43091253	          1.44177300	        -34.90621815	        -21.26182334	         -5.74419626	          4.80324096	         51.44291553	         -7.41096530	         -9.66412142	        -44.71365383	         20.10111754	         -8.55663542	          4.75681372	        -10.90309529	         -6.80122196	         18.14590238	         49.99883295	        -14.47485234	          5.93821056	         97.05931984	        -69.00199283	        -11.53187033	         -1.68639983	          0.31901160	
          0.11875163	         -4.28328422	          5.05187909	        -24.01469406	          1.15764244	          0.94557409	          0.02853039	         -6.83620558	        -13.43941195	          1.37067037	        -36.14872574	        -21.38190556	         -5.84591364	          5.16221823	         50.14582046	         -7.34095827	         -9.81910040	        -42.05104960	         20.52750437	         -8.82527031	          4.95015386	        -11.89534491	         -6.89889581	         18.97279477	         49.99290477	        -18.83536551	          7.90657846	         92.63837214	        -67.95687906	        -13.50091820	          4.46480528	          0.17975898	
